
<svg aria-hidden="true" style="position: absolute; width: 0; height: 0; overflow: hidden;" version="1.1" xmlns="http://www.w3.org/2000/svg" xmlns:xlink="http://www.w3.org/1999/xlink">
<defs>
<symbol id="icon-burger" viewBox="0 0 57 32">
<path fill="#39515e" style="fill: var(--color3, #39515e)" d="M1.684 0h53.102c0.93 0 1.684 0.754 1.684 1.684v2.279c0 0.93-0.754 1.684-1.684 1.684h-53.102c-0.93 0-1.684-0.754-1.684-1.684v-2.279c0-0.93 0.754-1.684 1.684-1.684z"></path>
<path fill="#39515e" style="fill: var(--color3, #39515e)" d="M1.684 13.176h53.102c0.93 0 1.684 0.754 1.684 1.684v2.279c0 0.93-0.754 1.684-1.684 1.684h-53.102c-0.93 0-1.684-0.754-1.684-1.684v-2.279c0-0.93 0.754-1.684 1.684-1.684z"></path>
<path fill="#39515e" style="fill: var(--color3, #39515e)" d="M1.684 26.353h36.574c0.93 0 1.684 0.754 1.684 1.684v2.279c0 0.93-0.754 1.684-1.684 1.684h-36.574c-0.93 0-1.684-0.754-1.684-1.684v-2.279c0-0.93 0.754-1.684 1.684-1.684z"></path>
</symbol>
<symbol id="icon-logo" viewBox="0 0 112 32">
<path fill="#000" style="fill: var(--color1, #000)" d="M14.758 16.614c0.973 0.154 1.856 0.55 2.65 1.19 0.819 0.64 1.459 1.434 1.92 2.381 0.486 0.947 0.73 1.958 0.73 3.034 0 1.357-0.346 2.586-1.037 3.686-0.691 1.075-1.702 1.933-3.034 2.573-1.306 0.614-2.854 0.922-4.646 0.922h-9.984v-26.765h9.6c1.818 0 3.366 0.307 4.646 0.922 1.28 0.589 2.24 1.395 2.88 2.419s0.96 2.176 0.96 3.456c0 1.587-0.435 2.906-1.306 3.955-0.845 1.024-1.971 1.766-3.379 2.227zM4.851 15.194h5.875c1.638 0 2.906-0.384 3.802-1.152s1.344-1.83 1.344-3.187c0-1.357-0.448-2.419-1.344-3.187s-2.189-1.152-3.878-1.152h-5.798v8.678zM11.034 27.52c1.741 0 3.098-0.41 4.070-1.229s1.459-1.958 1.459-3.418c0-1.485-0.512-2.65-1.536-3.494-1.024-0.87-2.394-1.306-4.109-1.306h-6.067v9.446h6.182zM28.401 12.774c0.614-1.203 1.485-2.138 2.611-2.803 1.152-0.666 2.547-0.998 4.186-0.998v3.61h-0.922c-3.917 0-5.875 2.125-5.875 6.374v11.443h-3.494v-21.043h3.494v3.418zM41.037 5.939c-0.666 0-1.229-0.23-1.69-0.691s-0.691-1.024-0.691-1.69c0-0.666 0.23-1.229 0.691-1.69s1.024-0.691 1.69-0.691c0.64 0 1.178 0.23 1.613 0.691 0.461 0.461 0.691 1.024 0.691 1.69s-0.23 1.229-0.691 1.69c-0.435 0.461-0.973 0.691-1.613 0.691zM42.726 9.357v21.043h-3.494v-21.043h3.494zM52.944 12.237v12.403c0 1.024 0.218 1.754 0.653 2.189 0.435 0.41 1.19 0.614 2.266 0.614h2.573v2.957h-3.149c-1.946 0-3.405-0.448-4.378-1.344s-1.459-2.368-1.459-4.416v-12.403h-2.726v-2.88h2.726v-5.299h3.494v5.299h5.491v2.88h-5.491z"></path>
<path fill="#939393" style="fill: var(--color2, #939393)" d="M66.164 1.984v28.416h-3.494v-28.416h3.494zM91.319 19.072c0 0.666-0.038 1.37-0.115 2.112h-16.819c0.128 2.074 0.832 3.699 2.112 4.877 1.306 1.152 2.88 1.728 4.723 1.728 1.51 0 2.765-0.346 3.763-1.037 1.024-0.717 1.741-1.664 2.15-2.842h3.763c-0.563 2.022-1.69 3.674-3.379 4.954-1.69 1.254-3.789 1.882-6.298 1.882-1.997 0-3.789-0.448-5.376-1.344-1.562-0.896-2.79-2.163-3.686-3.802-0.896-1.664-1.344-3.584-1.344-5.76s0.435-4.083 1.306-5.722c0.87-1.638 2.086-2.893 3.648-3.763 1.587-0.896 3.405-1.344 5.453-1.344 1.997 0 3.763 0.435 5.299 1.306s2.714 2.074 3.533 3.61c0.845 1.51 1.267 3.226 1.267 5.146zM87.71 18.342c0-1.331-0.294-2.47-0.883-3.418-0.589-0.973-1.395-1.702-2.419-2.189-0.998-0.512-2.112-0.768-3.341-0.768-1.766 0-3.277 0.563-4.531 1.69-1.229 1.126-1.933 2.688-2.112 4.685h13.286zM106.914 30.4l-4.992-7.834-4.8 7.834h-3.648l6.797-10.445-6.797-10.598h3.955l4.992 7.795 4.762-7.795h3.648l-6.758 10.406 6.797 10.637h-3.955z"></path>
</symbol>
<symbol id="icon-cross" viewBox="0 0 32 32">
<path fill="#39515e" style="fill: var(--color1, #39515e)" d="M17.88 16l5.733-5.72c0.251-0.251 0.392-0.592 0.392-0.947s-0.141-0.696-0.392-0.947c-0.251-0.251-0.592-0.392-0.947-0.392s-0.696 0.141-0.947 0.392l-5.72 5.733-5.72-5.733c-0.251-0.251-0.592-0.392-0.947-0.392s-0.696 0.141-0.947 0.392-0.392 0.592-0.392 0.947c0 0.355 0.141 0.696 0.392 0.947l5.733 5.72-5.733 5.72c-0.125 0.124-0.224 0.271-0.292 0.434s-0.103 0.337-0.103 0.513 0.035 0.35 0.103 0.513c0.068 0.162 0.167 0.31 0.292 0.434 0.124 0.125 0.271 0.224 0.434 0.292s0.337 0.103 0.513 0.103c0.176 0 0.35-0.035 0.513-0.103s0.31-0.167 0.434-0.292l5.72-5.733 5.72 5.733c0.124 0.125 0.271 0.224 0.434 0.292s0.337 0.103 0.513 0.103 0.35-0.035 0.513-0.103c0.162-0.068 0.31-0.167 0.434-0.292 0.125-0.124 0.224-0.271 0.292-0.434s0.102-0.337 0.102-0.513c0-0.176-0.035-0.35-0.102-0.513s-0.167-0.31-0.292-0.434l-5.733-5.72z"></path>
</symbol>

</defs>
</svg>